<svg viewBox="0 0 403 328" xmlns="http://www.w3.org/2000/svg" xml:space="preserve" style="fill-rule:evenodd;clip-rule:evenodd;stroke-linejoin:round;stroke-miterlimit:2"><path d="M247.753 119.436c-6.83.786-12.435 5.49-16.618 12.78-4.618 8.046-7.592 19.565-10.788 27.021-12.079 28.186-17.686 57.363-11.143 87.927 2.465 11.516 10.243 25.025 15.288 35.676 16.034 33.85 56.943 73.035 91.488 88.149 22.652 9.91 47.444 14.726 71.086 21.691 25.369 7.474 47.314 15.993 74.341 9.236 55.732-13.933 100.646-52.301 132.035-99.384 7.953-11.93 13.315-31.475 14.93-51.379 1.618-19.941-.541-40.148-6.724-53.289-10.067-21.392-27.791-38.882-45.549-53.799-32.661-27.435-81.235-61.505-125.446-66.624-26.796-3.103-54.288 2.254-80.333 7.742-27.311 5.756-53.111 17.008-79.807 24.524-5.142 1.448-18.371 7.645-22.76 9.729Zm2.056 15.883a8.003 8.003 0 0 0 3.496-.804s16.005-7.847 21.544-9.407c26.355-7.42 51.809-18.587 78.77-24.269 24.387-5.139 50.103-10.41 75.194-7.505 41.357 4.79 86.442 37.318 116.994 62.982 16.032 13.466 32.276 29.049 41.364 48.361 5.236 11.128 6.623 28.295 5.253 45.182-1.373 16.923-5.533 33.654-12.295 43.797-29.198 43.798-70.76 79.777-122.603 92.738-24.012 6.003-43.399-2.421-65.939-9.062-23.002-6.776-47.154-11.36-69.194-21.002-31.496-13.779-68.822-49.477-83.441-80.339-4.567-9.641-11.871-21.753-14.103-32.176-5.827-27.221-.554-53.172 10.204-78.275 2.559-5.97 4.911-14.674 8.194-21.882 1.041-2.284 2.165-4.399 3.496-6.091.898-1.141 1.731-2.248 3.066-2.248Z" style="fill:#fdd01b" transform="translate(-206.441 -76.517)"/></svg>