<svg viewBox="0 0 378 301" xmlns="http://www.w3.org/2000/svg" xml:space="preserve" style="fill-rule:evenodd;clip-rule:evenodd;stroke-linejoin:round;stroke-miterlimit:2"><path d="M541.144 333.143c4.457 4.454 9.097 8.99 14.618 11.751 1.494.747 3.323 2.583 5.349 4.567 4.306 4.217 8.941 9.271 12.21 11.896 3.236 2.599 6.277 3.441 8.128 3.441 4.415 0 8-3.585 8-8a8.004 8.004 0 0 0-5.721-7.668c-1.016-.933-5.123-4.724-7.934-7.595-4.608-4.706-9.512-9.27-12.877-10.952-4.19-2.095-7.507-5.801-10.881-9.175-1.061-1.06-2.771-2.2-4.909-3.139-2.069-.908-4.933-1.599-6.304-2.489-6.263-4.066-13.483-9.666-19.865-13.751-10.406-6.66-20.504-16.446-30.51-24.617-32.854-26.829-76.52-38.334-113.246-58.738-24.705-13.725-54.433-31.756-75.776-49.479-8.414-6.987-20.503-10.099-29.485-16.404-6.568-4.609-23.379-16.037-35.785-23.045-6.222-3.515-11.582-5.895-14.563-6.47a8.004 8.004 0 0 0-9.372 6.338 8.005 8.005 0 0 0 6.339 9.372c2.02.39 5.51 2.309 9.727 4.691 11.95 6.75 28.135 17.77 34.461 22.21 8.641 6.066 20.362 8.896 28.456 15.617 22.043 18.305 52.712 36.981 78.227 51.156 35.915 19.953 78.769 30.909 110.896 57.145 10.477 8.556 21.11 18.727 32.006 25.701 6.355 4.067 13.542 9.646 19.779 13.695 1.214.788 3.053 1.609 5.069 2.366a183.4 183.4 0 0 1 3.963 1.576Z" style="fill:#fdd01b" transform="translate(-212.076 -85.011)"/><path d="M238.1 380.54c.801-.694 3.067-2.632 4.936-3.983 4.773-3.449 10.481-7.025 12.736-8.528 3.836-2.558 9.078-4.158 13.717-6.192 4.359-1.911 8.289-4.159 11.136-7.006 11.252-11.252 18.645-22.411 31.469-33.043 19.127-15.857 36.351-33.881 58.154-45.621 7.041-3.791 11.797-10.514 18.665-14.696 14.319-8.72 30.437-18.652 43.652-29.656 21.561-17.953 39.213-40.549 56.741-62.09 9.722-11.949 27.949-22.861 39.582-33.437 8.401-7.637 18.584-15.644 25.415-24.754 3.064-4.084 6.181-9.102 10.122-12.347 3.408-2.807 3.897-7.853 1.09-11.261a8.003 8.003 0 0 0-11.261-1.09c-4.878 4.017-8.959 10.043-12.751 15.099-6.25 8.333-15.692 15.527-23.377 22.514-12.169 11.062-31.061 22.68-41.231 35.178-16.884 20.75-33.798 42.598-54.568 59.892-12.626 10.513-28.056 19.956-41.736 28.286-3.828 2.331-7.093 5.339-10.346 8.337-2.373 2.188-4.719 4.395-7.583 5.937-22.734 12.242-40.836 30.857-60.779 47.391-13.243 10.979-20.953 22.428-32.572 34.047-2.089 2.09-5.347 3.328-8.638 4.675-4.853 1.985-9.876 3.924-13.776 6.524-3.629 2.419-15.43 9.868-20.028 14.394-3.216 3.166-4.119 6.442-4.119 8.272 0 4.416 3.584 8 8 8a8.001 8.001 0 0 0 7.35-4.842Z" style="fill:#fdd01b" transform="translate(-212.076 -85.011)"/></svg>