<?xml version="1.0" encoding="UTF-8" standalone="no"?>
<!DOCTYPE svg PUBLIC "-//W3C//DTD SVG 1.1//EN" "http://www.w3.org/Graphics/SVG/1.1/DTD/svg11.dtd">
<svg width="100%" height="100%" viewBox="0 0 403 328" version="1.1" xmlns="http://www.w3.org/2000/svg" xmlns:xlink="http://www.w3.org/1999/xlink" xml:space="preserve" xmlns:serif="http://www.serif.com/" style="fill-rule:evenodd;clip-rule:evenodd;stroke-linejoin:round;stroke-miterlimit:2;">
    <g transform="matrix(1,0,0,1,-206.441,-76.5166)">
        <path d="M247.753,119.436C240.923,120.222 235.318,124.926 231.135,132.216C226.517,140.262 223.543,151.781 220.347,159.237C208.268,187.423 202.661,216.6 209.204,247.164C211.669,258.68 219.447,272.189 224.492,282.84C240.526,316.69 281.435,355.875 315.98,370.989C338.632,380.899 363.424,385.715 387.066,392.68C412.435,400.154 434.38,408.673 461.407,401.916C517.139,387.983 562.053,349.615 593.442,302.532C601.395,290.602 606.757,271.057 608.372,251.153C609.99,231.212 607.831,211.005 601.648,197.864C591.581,176.472 573.857,158.982 556.099,144.065C523.438,116.63 474.864,82.56 430.653,77.441C403.857,74.338 376.365,79.695 350.32,85.183C323.009,90.939 297.209,102.191 270.513,109.707C265.371,111.155 252.142,117.352 247.753,119.436ZM249.809,135.319C251.02,135.319 252.216,135.044 253.305,134.515C253.305,134.515 269.31,126.668 274.849,125.108C301.204,117.688 326.658,106.521 353.619,100.839C378.006,95.7 403.722,90.429 428.813,93.334C470.17,98.124 515.255,130.652 545.807,156.316C561.839,169.782 578.083,185.365 587.171,204.677C592.407,215.805 593.794,232.972 592.424,249.859C591.051,266.782 586.891,283.513 580.129,293.656C550.931,337.454 509.369,373.433 457.526,386.394C433.514,392.397 414.127,383.973 391.587,377.332C368.585,370.556 344.433,365.972 322.393,356.33C290.897,342.551 253.571,306.853 238.952,275.991C234.385,266.35 227.081,254.238 224.849,243.815C219.022,216.594 224.295,190.643 235.053,165.54C237.612,159.57 239.964,150.866 243.247,143.658C244.288,141.374 245.412,139.259 246.743,137.567C247.641,136.426 248.474,135.319 249.809,135.319Z" style="fill:rgb(253,208,27);"/>
    </g>
</svg>
