<?xml version="1.0" encoding="UTF-8" standalone="no"?>
<!DOCTYPE svg PUBLIC "-//W3C//DTD SVG 1.1//EN" "http://www.w3.org/Graphics/SVG/1.1/DTD/svg11.dtd">
<svg width="100%" height="100%" viewBox="0 0 1753 1833" version="1.1" xmlns="http://www.w3.org/2000/svg" xmlns:xlink="http://www.w3.org/1999/xlink" xml:space="preserve" xmlns:serif="http://www.serif.com/" style="fill-rule:evenodd;clip-rule:evenodd;stroke-linecap:round;stroke-linejoin:round;stroke-miterlimit:1.5;">
    <path d="M-3.387,1833C46.715,1572.63 136.179,1009.87 193.855,807.984L193.859,807.984C173.836,651.426 158.826,499.121 193.107,388.714C136.071,436.094 78.189,481.108 8.905,494.196C5.454,494.823 2.838,491.299 4.306,488.171C27.64,438.457 66.16,360.668 95.076,306.792C151.59,201.496 215.231,99.951 291.609,7.799C293.792,5.17 296.643,7.426 296.862,9.843C297.845,20.676 296.994,31.637 298.194,42.449C300.868,66.557 313.614,109.758 318.412,128.433C324.471,152.019 326.734,167.373 335.564,188.189C344.842,210.062 358.187,229.796 366.487,252.167C383.085,296.904 392.737,342.693 404.175,388.873C439.252,358.782 478.64,336.421 521.415,319.455C599.677,288.413 677.631,252.22 762.226,242.621C822.151,235.821 884.514,247.466 941.696,264.821C1082.44,307.537 1208.29,394.803 1304.34,505.435C1381.14,364.397 1438.49,235.46 1477.56,82.724C1478.94,77.304 1486.34,76.165 1489.31,80.878C1562.01,196.021 1634.25,311.448 1706.49,426.873C1721.29,475.241 1736.09,523.614 1750.04,572.236C1750.82,574.952 1748.52,577.581 1745.69,577.021C1699.97,566.12 1617.56,500.037 1520.13,422.99L1493.69,831.959C1524.65,855.201 1677.72,1519.94 1745.69,1833L-3.387,1833Z" style="fill:url(#_Linear1);stroke:black;stroke-width:1.5px;"/>
    <g>
        <path d="M575.585,855.898C572.287,850.95 596.909,838.712 607.502,837.66C608.769,837.534 615.985,834.736 617.924,835.706C630.782,842.134 634.65,853.083 643.328,861.76C649.483,867.916 660.716,869.832 664.172,876.742C666.069,880.537 670.349,882.583 671.988,885.861C674.943,891.77 673.502,899.08 675.245,906.053C676.066,909.339 676.82,917.506 674.593,919.732C662.957,931.368 650.445,943.229 640.722,952.952C638.582,955.093 626.281,957.622 621.833,962.071C620.267,963.636 613.738,963.187 612.062,964.025C605.779,967.166 581.838,967.021 576.888,962.071C574.366,959.549 561.67,950.288 560.604,947.09C558.702,941.383 556.613,936.503 554.09,931.457C550.255,923.786 550.833,911.738 550.833,902.797C550.833,900.244 550.094,894.417 551.485,893.026C556.07,888.441 559.872,879.508 562.558,874.136C564.516,870.22 570.208,855.898 575.585,855.898Z" style="fill:white;stroke:black;stroke-width:11.25px;"/>
        <ellipse cx="613.932" cy="916.989" rx="16.284" ry="16.171" style="stroke:black;stroke-width:3.71px;"/>
    </g>
    <g>
        <path d="M981.744,924.345C983.102,922.826 984.149,921.056 984.825,919.135C986.22,915.029 988.311,909.144 989.856,906.053C991.58,902.605 991.42,887.554 993.113,885.861C994.703,884.27 992.509,877.997 994.416,876.09C997.473,873.032 998.254,866.389 1001.58,863.063C1004.94,859.708 1010.12,857.785 1013.31,854.595C1014.07,853.827 1019.95,854.595 1021.12,854.595C1025.06,854.595 1041.32,861.762 1042.62,864.366C1044.2,867.541 1052.36,868.871 1054.34,872.834C1056.82,877.793 1062.59,880.208 1065.41,885.861C1069.86,894.755 1071.08,903.043 1075.18,911.264C1077.11,915.121 1082.09,929.374 1079.09,935.365C1072.77,948.005 1069.35,958.14 1061.51,965.979C1058.45,969.039 1056.7,974.311 1052.39,975.75C1047.21,977.476 1040.03,985.202 1031.54,980.961C1028.03,979.203 1025.73,975.122 1021.77,973.144C1005.06,964.787 997.545,960.641 985.296,948.392C983.265,946.361 978.292,928.171 981.744,924.345Z" style="fill:white;stroke:black;stroke-width:11.25px;"/>
        <ellipse cx="1036.27" cy="930.692" rx="16.284" ry="16.171" style="stroke:black;stroke-width:3.71px;"/>
    </g>
    <path d="M856.977,937.97C854.661,942.602 852.301,946.671 850.463,950.346C849.277,952.718 850.463,959.441 850.463,962.071C850.463,968.261 851.411,991.794 849.812,996.594C847.392,1003.85 849.541,1017.82 853.72,1022C855.6,1023.88 852.483,1031.25 853.72,1033.72C858.437,1043.16 862.839,1059.89 862.839,1070.85C862.839,1074.02 863.989,1082.73 862.188,1084.53C860.935,1085.78 863.012,1090.7 862.188,1092.35C859.419,1097.88 856.395,1100.09 853.069,1103.42C845.911,1110.58 846.055,1114.49 831.573,1114.49C829.532,1114.49 818.187,1116.09 816.592,1114.49C813.708,1111.61 807.342,1110.45 804.216,1107.33C798.566,1101.68 797.302,1080.07 794.445,1071.5C792.852,1066.72 796.683,1059.04 794.445,1054.57C792.971,1051.62 790.049,1046.67 784.675,1049.36C778.029,1052.68 778.314,1060.28 772.95,1065.64C761.03,1077.56 744.917,1108.62 717.584,1099.51C713.164,1098.04 709.454,1099.2 706.511,1096.25C706.46,1096.2 707.848,1090.46 707.162,1089.09C702.278,1079.32 704.921,1062.59 708.465,1051.96C710.251,1046.6 710.711,1028.22 714.327,1024.6C720.635,1018.29 723.314,1010.4 729.308,1004.41C730.238,1003.48 730.574,999.888 731.914,998.548C735.887,994.575 741.412,991.655 745.593,987.474C752.847,980.22 756.065,970.488 763.18,963.374C768.436,958.118 771.647,936.828 771.647,927.549C771.647,925.703 772.186,914.521 770.996,914.521" style="fill:none;stroke:black;stroke-width:11.25px;"/>
    <path d="M672.639,1361.36C677.38,1366.1 681.077,1382.17 683.713,1384.81C687.408,1388.5 689.962,1397.57 691.529,1399.14C695.983,1403.59 699.627,1409.19 704.556,1414.12C711.255,1420.82 721.568,1419.37 728.006,1422.59C731.672,1424.42 757.143,1428.62 760.574,1425.19C764.631,1421.14 770.512,1413.41 776.207,1411.52C784.156,1408.87 788.707,1397.71 793.143,1393.28C795.735,1390.68 795.548,1384.36 798.354,1381.55C801.582,1378.32 802.618,1373.67 804.867,1369.18C809.572,1359.77 815.323,1352.17 819.849,1343.12C820.978,1340.86 823.954,1339.74 825.06,1337.91C827.503,1333.87 830.086,1327.02 833.527,1323.58C835.704,1321.4 836.754,1317.1 838.738,1315.11C844.731,1309.12 851.573,1302.93 858.279,1296.22C860.071,1294.43 866.683,1285.8 868.701,1285.8" style="fill:none;stroke:black;stroke-width:11.25px;"/>
    <defs>
        <linearGradient id="_Linear1" x1="0" y1="0" x2="1" y2="0" gradientUnits="userSpaceOnUse" gradientTransform="matrix(2e-06,0,0,2e-06,-595.053,854.254)"><stop offset="0" style="stop-color:rgb(217,128,250);stop-opacity:1"/><stop offset="1" style="stop-color:rgb(217,128,250);stop-opacity:1"/></linearGradient>
    </defs>
</svg>
