<?xml version="1.0" encoding="UTF-8" standalone="no"?>
<!DOCTYPE svg PUBLIC "-//W3C//DTD SVG 1.1//EN" "http://www.w3.org/Graphics/SVG/1.1/DTD/svg11.dtd">
<svg width="100%" height="100%" viewBox="0 0 1460 711" version="1.1" xmlns="http://www.w3.org/2000/svg" xmlns:xlink="http://www.w3.org/1999/xlink" xml:space="preserve" xmlns:serif="http://www.serif.com/" style="fill-rule:evenodd;clip-rule:evenodd;stroke-linecap:round;stroke-linejoin:round;stroke-miterlimit:1.5;">
    <g transform="matrix(1.8501,0.300067,-0.300067,1.8501,193.958,-1098.85)">
        <path d="M294.067,882.698C295.233,882.317 295.321,881.824 294.067,881.197L294.067,882.698C284.28,885.9 207.215,874.802 201.539,874.802C197.175,874.802 113.105,854.79 105.403,847.088C101.075,842.76 107.438,813.948 104.338,810.848C99.598,806.108 77.88,796.422 74.492,806.584C73.032,810.966 81.367,819.962 77.69,823.638C72.245,829.084 50.753,810.652 45.713,825.77C36.51,853.379 57.264,842.651 63.833,849.22C65.304,850.69 53.467,851.739 52.109,852.418C46.901,855.022 44.77,856.558 41.45,859.879C32.489,868.84 59.693,874.802 63.833,874.802C64.484,874.802 67.682,874.386 68.097,874.802C71.172,877.877 62.434,885.927 60.636,886.526C48.535,890.56 50.925,898.134 57.438,904.647C62.062,909.271 79.588,901.854 83.02,900.383C89.84,897.46 104.095,895.296 108.601,890.79C110.26,889.131 122.708,890.79 124.59,890.79C130.46,890.79 144.144,888.309 149.105,890.79C154.024,893.249 289.225,917.681 294.067,920.102L294.067,882.698Z" style="fill:rgb(217,128,250);"/>
    </g>
    <path d="M428.143,628.058C446.13,531.591 475.505,349.472 494.78,282.001L494.782,282.001C487.742,226.959 482.465,173.413 494.517,134.597C474.465,151.255 454.115,167.08 429.757,171.682C428.544,171.902 427.624,170.663 428.14,169.563C436.344,152.085 449.886,124.737 460.052,105.796C479.921,68.776 502.295,33.076 529.148,0.678C529.915,-0.246 530.918,0.547 530.995,1.396C531.34,5.205 531.041,9.059 531.463,12.86C532.403,21.336 536.884,36.524 538.571,43.089C540.701,51.382 541.497,56.78 544.601,64.098C547.863,71.788 552.555,78.726 555.473,86.591C561.308,102.319 564.702,118.417 568.723,134.653C581.055,124.074 594.903,116.212 609.941,110.248C637.456,99.334 664.863,86.61 694.604,83.235C715.672,80.844 737.597,84.938 757.701,91.04C807.182,106.057 851.428,136.738 885.196,175.633C912.197,126.048 932.36,80.717 946.096,27.019C946.581,25.114 949.182,24.713 950.227,26.37C975.786,66.852 1001.18,107.432 1026.58,148.013C1031.78,165.018 1036.99,182.024 1041.89,199.118C1042.17,200.073 1041.36,200.998 1040.36,200.801C1024.29,196.968 995.316,173.735 961.062,146.648L951.767,290.43C962.199,298.262 1012.07,513.296 1037.24,628.058L1041.95,628.058L1041.95,691.668L425.435,691.668L425.435,628.058L428.143,628.058Z" style="fill:url(#_Linear1);"/>
    <g transform="matrix(1.44299,0,0,1.44299,309.261,-670.635)">
        <path d="M574.495,900.383C574.495,900.383 611.129,896.94 619.166,892.922C634.862,885.074 647.042,880.05 661.802,872.67C667.514,869.813 693.566,865.421 696.976,862.011C699.229,859.758 703.364,857.755 705.503,855.615C708.928,852.191 712.305,811.101 716.162,803.386C719.492,796.728 725.572,796.109 730.019,791.662C736.507,785.174 749.308,804.247 744.942,812.979C743.274,816.315 732.744,833.825 734.283,835.363C737.797,838.878 745.76,832.289 748.139,831.1C754.271,828.034 781.632,815.561 790.775,824.704C802.807,836.736 755.601,844.941 755.601,847.088C755.601,849.168 765.856,850.617 767.325,851.352C770.202,852.79 792.356,868.441 789.709,873.736C785.136,882.881 761.895,874.701 757.732,870.538C756.696,869.502 753.469,869.472 753.469,869.472C753.469,869.472 758.579,877.78 761.996,881.197C764.25,883.451 781.895,907.132 776.918,912.108C751.559,937.467 732.721,892.636 708.701,904.647C703.302,907.346 702.181,910.101 699.108,913.174C695.076,917.206 686.025,917.73 682.054,921.701C676.114,927.641 661.422,925.621 654.34,929.162C646.475,933.095 637.513,932.64 628.759,935.558C615.911,939.84 602.656,941.975 589.321,943.038L589.321,944.086L478.092,944.086L478.092,900.383L480.555,900.383C480.584,899.942 480.599,899.582 480.599,899.317L480.708,900.383L574.495,900.383Z" style="fill:rgb(217,128,250);"/>
    </g>
    <g transform="matrix(1.06195,0,0,1.06195,-38.4204,-18.0684)">
        <g transform="matrix(0.351572,0,0,0.351572,426.626,-2.06408)">
            <path d="M575.585,855.898C572.287,850.95 596.909,838.712 607.502,837.66C608.769,837.534 615.985,834.736 617.924,835.706C630.782,842.134 634.65,853.083 643.328,861.76C649.483,867.916 660.716,869.832 664.172,876.742C666.069,880.537 670.349,882.583 671.988,885.861C674.943,891.77 673.502,899.08 675.245,906.053C676.066,909.339 676.82,917.506 674.593,919.732C662.957,931.368 650.445,943.229 640.722,952.952C638.582,955.093 626.281,957.622 621.833,962.071C620.267,963.636 613.738,963.187 612.062,964.025C605.779,967.166 581.838,967.021 576.888,962.071C574.366,959.549 561.67,950.288 560.604,947.09C558.702,941.383 556.613,936.503 554.09,931.457C550.255,923.786 550.833,911.738 550.833,902.797C550.833,900.244 550.094,894.417 551.485,893.026C556.07,888.441 559.872,879.508 562.558,874.136C564.516,870.22 570.208,855.898 575.585,855.898Z" style="fill:white;stroke:black;stroke-width:11.25px;"/>
        </g>
        <g transform="matrix(0.351572,0,0,0.351572,426.626,-2.06408)">
            <ellipse cx="613.932" cy="916.989" rx="16.284" ry="16.171" style="stroke:black;stroke-width:3.71px;"/>
        </g>
    </g>
    <g transform="matrix(1.06195,0,0,1.06195,-38.4204,-18.0684)">
        <g transform="matrix(0.351572,0,0,0.351572,426.626,-2.06408)">
            <path d="M981.744,924.345C983.102,922.826 984.149,921.056 984.825,919.135C986.22,915.029 988.311,909.144 989.856,906.053C991.58,902.605 991.42,887.554 993.113,885.861C994.703,884.27 992.509,877.997 994.416,876.09C997.473,873.032 998.254,866.389 1001.58,863.063C1004.94,859.708 1010.12,857.785 1013.31,854.595C1014.07,853.827 1019.95,854.595 1021.12,854.595C1025.06,854.595 1041.32,861.762 1042.62,864.366C1044.2,867.541 1052.36,868.871 1054.34,872.834C1056.82,877.793 1062.59,880.208 1065.41,885.861C1069.86,894.755 1071.08,903.043 1075.18,911.264C1077.11,915.121 1082.09,929.374 1079.09,935.365C1072.77,948.005 1069.35,958.14 1061.51,965.979C1058.45,969.039 1056.7,974.311 1052.39,975.75C1047.21,977.476 1040.03,985.202 1031.54,980.961C1028.03,979.203 1025.73,975.122 1021.77,973.144C1005.06,964.787 997.545,960.641 985.296,948.392C983.265,946.361 978.292,928.171 981.744,924.345Z" style="fill:white;stroke:black;stroke-width:11.25px;"/>
        </g>
        <g transform="matrix(0.351572,0,0,0.351572,426.626,-2.06408)">
            <ellipse cx="1036.27" cy="930.692" rx="16.284" ry="16.171" style="stroke:black;stroke-width:3.71px;"/>
        </g>
    </g>
    <g transform="matrix(0.373351,0,0,0.373351,414.634,-20.2604)">
        <path d="M856.977,937.97C854.661,942.602 852.301,946.671 850.463,950.346C849.277,952.718 850.463,959.441 850.463,962.071C850.463,968.261 851.411,991.794 849.812,996.594C847.392,1003.85 849.541,1017.82 853.72,1022C855.6,1023.88 852.483,1031.25 853.72,1033.72C858.437,1043.16 862.839,1059.89 862.839,1070.85C862.839,1074.02 863.989,1082.73 862.188,1084.53C860.935,1085.78 863.012,1090.7 862.188,1092.35C859.419,1097.88 856.395,1100.09 853.069,1103.42C845.911,1110.58 846.055,1114.49 831.573,1114.49C829.532,1114.49 818.187,1116.09 816.592,1114.49C813.708,1111.61 807.342,1110.45 804.216,1107.33C798.566,1101.68 797.302,1080.07 794.445,1071.5C792.852,1066.72 796.683,1059.04 794.445,1054.57C792.971,1051.62 790.049,1046.67 784.675,1049.36C778.029,1052.68 778.314,1060.28 772.95,1065.64C761.03,1077.56 744.917,1108.62 717.584,1099.51C713.164,1098.04 709.454,1099.2 706.511,1096.25C706.46,1096.2 707.848,1090.46 707.162,1089.09C702.278,1079.32 704.921,1062.59 708.465,1051.96C710.251,1046.6 710.711,1028.22 714.327,1024.6C720.635,1018.29 723.314,1010.4 729.308,1004.41C730.238,1003.48 730.574,999.888 731.914,998.548C735.887,994.575 741.412,991.655 745.593,987.474C752.847,980.22 756.065,970.488 763.18,963.374C768.436,958.118 771.647,936.828 771.647,927.549C771.647,925.703 772.186,914.521 770.996,914.521" style="fill:none;stroke:black;stroke-width:11.25px;"/>
    </g>
    <g transform="matrix(0.373351,0,0,0.373351,414.634,-20.2604)">
        <path d="M672.639,1361.36C677.38,1366.1 681.077,1382.17 683.713,1384.81C687.408,1388.5 689.962,1397.57 691.529,1399.14C695.983,1403.59 699.627,1409.19 704.556,1414.12C711.255,1420.82 721.568,1419.37 728.006,1422.59C731.672,1424.42 757.143,1428.62 760.574,1425.19C764.631,1421.14 770.512,1413.41 776.207,1411.52C784.156,1408.87 788.707,1397.71 793.143,1393.28C795.735,1390.68 795.548,1384.36 798.354,1381.55C801.582,1378.32 802.618,1373.67 804.867,1369.18C809.572,1359.77 815.323,1352.17 819.849,1343.12C820.978,1340.86 823.954,1339.74 825.06,1337.91C827.503,1333.87 830.086,1327.02 833.527,1323.58C835.704,1321.4 836.754,1317.1 838.738,1315.11C844.731,1309.12 851.573,1302.93 858.279,1296.22C860.071,1294.43 866.683,1285.8 868.701,1285.8" style="fill:none;stroke:black;stroke-width:11.25px;"/>
    </g>
    <defs>
        <linearGradient id="_Linear1" x1="0" y1="0" x2="1" y2="0" gradientUnits="userSpaceOnUse" gradientTransform="matrix(2e-06,0,0,2e-06,-595.053,854.254)"><stop offset="0" style="stop-color:rgb(217,128,250);stop-opacity:1"/><stop offset="1" style="stop-color:rgb(217,128,250);stop-opacity:1"/></linearGradient>
    </defs>
</svg>
