<?xml version="1.0" encoding="UTF-8" standalone="no"?>
<!DOCTYPE svg PUBLIC "-//W3C//DTD SVG 1.1//EN" "http://www.w3.org/Graphics/SVG/1.1/DTD/svg11.dtd">
<svg width="100%" height="100%" viewBox="0 0 1460 711" version="1.1" xmlns="http://www.w3.org/2000/svg" xmlns:xlink="http://www.w3.org/1999/xlink" xml:space="preserve" xmlns:serif="http://www.serif.com/" style="fill-rule:evenodd;clip-rule:evenodd;stroke-linecap:round;stroke-linejoin:round;stroke-miterlimit:1.5;">
    <path d="M428.143,628.058C446.13,531.591 475.505,349.472 494.78,282.001L494.782,282.001C487.742,226.959 482.465,173.413 494.517,134.597C474.465,151.255 454.115,167.08 429.757,171.682C428.544,171.902 427.624,170.663 428.14,169.563C436.344,152.085 449.886,124.737 460.052,105.796C479.921,68.776 502.295,33.076 529.148,0.678C529.915,-0.246 530.918,0.547 530.995,1.396C531.34,5.205 531.041,9.059 531.463,12.86C532.403,21.336 536.884,36.524 538.571,43.089C540.701,51.382 541.497,56.78 544.601,64.098C547.863,71.788 552.555,78.726 555.473,86.591C561.308,102.319 564.702,118.417 568.723,134.653C581.055,124.074 594.903,116.212 609.941,110.248C637.456,99.334 664.863,86.61 694.604,83.235C715.672,80.844 737.597,84.938 757.701,91.04C807.182,106.057 851.428,136.738 885.196,175.633C912.197,126.048 932.36,80.717 946.096,27.019C946.581,25.114 949.182,24.713 950.227,26.37C975.786,66.852 1001.18,107.432 1026.58,148.013C1031.78,165.018 1036.99,182.024 1041.89,199.118C1042.17,200.073 1041.36,200.998 1040.36,200.801C1024.29,196.968 995.316,173.735 961.062,146.648L951.767,290.43C962.199,298.262 1012.07,513.296 1037.24,628.058L1041.95,628.058L1041.95,691.668L425.435,691.668L425.435,628.058L428.143,628.058Z" style="fill:url(#_Linear1);"/>
    <g>
        <g>
            <g transform="matrix(1.44299,0,0,1.44299,309.261,-670.635)">
                <path d="M574.495,900.383C574.495,900.383 611.129,896.94 619.166,892.922C634.862,885.074 647.042,880.05 661.802,872.67C667.514,869.813 693.566,865.421 696.976,862.011C699.229,859.758 703.364,857.755 705.503,855.615C708.928,852.191 712.305,811.101 716.162,803.386C719.492,796.728 725.572,796.109 730.019,791.662C736.507,785.174 749.308,804.247 744.942,812.979C743.274,816.315 732.744,833.825 734.283,835.363C737.797,838.878 745.76,832.289 748.139,831.1C754.271,828.034 781.632,815.561 790.775,824.704C802.807,836.736 755.601,844.941 755.601,847.088C755.601,849.168 765.856,850.617 767.325,851.352C770.202,852.79 792.356,868.441 789.709,873.736C785.136,882.881 761.895,874.701 757.732,870.538C756.696,869.502 753.469,869.472 753.469,869.472C753.469,869.472 758.579,877.78 761.996,881.197C764.25,883.451 781.895,907.132 776.918,912.108C751.559,937.467 732.721,892.636 708.701,904.647C703.302,907.346 702.181,910.101 699.108,913.174C695.076,917.206 686.025,917.73 682.054,921.701C676.114,927.641 661.422,925.621 654.34,929.162C646.475,933.095 637.513,932.64 628.759,935.558C615.911,939.84 602.656,941.975 589.321,943.038L589.321,944.086L478.092,944.086L478.092,900.383L480.555,900.383C480.584,899.942 480.599,899.582 480.599,899.317L480.708,900.383L574.495,900.383Z" style="fill:rgb(217,128,250);"/>
            </g>
            <g transform="matrix(-0.982242,-0.18762,-0.18762,0.982242,1584.46,113.901)">
                <path d="M273.63,563.115C274.598,563.18 278.044,563.411 280.1,563.521C284.951,563.782 289.159,565.175 291.465,567.48C292.829,568.845 294.72,569.31 296.684,569.882C298.926,570.534 301.298,571.114 303.678,571.907C307.44,573.161 317.609,577.044 324.447,580.337C326.91,581.523 328.997,582.725 330.498,583.759C331.621,583.689 333.608,583.585 334.675,583.634C336.497,583.718 338.098,584.136 339.377,584.776C344.565,587.37 353.31,589.072 358.962,591.898C359.384,592.109 359.916,591.984 360.45,591.996C361.546,592.02 362.676,591.983 363.783,591.991C366.9,592.013 369.867,592.454 372.316,593.678C377.567,596.304 385.416,597.34 392.148,599.169C396.852,600.448 401.096,602.125 404.354,604.334C405.634,603.3 407.263,602.682 409.035,602.682C410.624,602.682 417.774,604.884 422.368,607.56C425.428,609.343 427.438,611.556 428.182,613.044C428.208,613.098 429.366,615.105 428.898,617.692L429.453,618.224C431.324,620.096 432.408,622.122 433.088,624.189C433.395,625.12 433.694,626.505 433.898,627.562C434.21,627.59 434.543,627.609 434.852,627.609C438.976,627.609 442.324,630.957 442.324,635.081C442.324,639.205 438.976,642.553 434.852,642.553C434.342,642.553 433.851,642.541 433.379,642.514C434.875,646.295 436.22,649.596 437.084,651.325C437.948,653.052 438.349,655.017 438.371,657.124C438.382,658.198 438.28,660.244 438.248,660.842C439.499,663.94 440.36,670.313 440.034,674.905C439.804,678.137 438.875,680.68 438.004,681.978C436.229,684.622 433.842,685.607 431.469,685.695C429.68,685.762 427.381,685.36 425.117,683.096C422.886,680.865 419.731,676.826 415.486,674.703C401.441,667.681 386.907,663.084 370.974,655.118C367.546,653.404 363.374,652.966 359.186,652.361C353.376,651.52 347.527,650.516 342.486,647.996C328.079,640.792 313.821,638.56 298.864,631.081C296.41,629.854 293.223,630.117 290.031,630.165C284.695,630.244 279.303,630.278 274.916,628.816C254.437,621.99 238.964,618.906 225.703,605.645C225.134,605.076 223.638,603.256 223.34,600.126C223.148,598.12 223.211,594.132 223.416,592.276C223.6,590.613 224.064,589.485 224.303,589.008C226.161,585.293 225.387,580.037 225.414,575.239C225.444,570 226.015,565.109 227.864,561.41C228.252,560.635 229.34,558.131 230.517,556.391C231.791,554.508 233.348,553.216 234.643,552.568C238.011,550.884 241.282,551.126 244.282,554.127C245.442,555.287 247.359,555.762 249.393,556.285C252.67,557.127 256.319,557.629 259.669,558.197C265.59,559.2 270.693,560.836 273.63,563.115ZM240.841,569.057C244.642,570.58 249.116,571.599 253.57,572.337C256.435,572.812 259.25,573.223 261.63,573.811C262.566,574.042 263.929,574.574 264.176,574.672C266.404,576.747 270.476,578.062 275.234,578.288C277.234,578.382 280.668,578.651 281.625,578.728C286.108,582.693 292.413,583.904 298.953,586.084C302.396,587.232 311.704,590.788 317.963,593.802C319.685,594.631 321.819,595.895 322.016,596.012C323.463,597.39 325.458,598.37 327.963,598.659C329.413,598.827 332.563,598.654 333.635,598.586C338.889,600.938 346.955,602.603 352.279,605.264C354.72,606.485 357.685,606.925 360.804,606.946C361.908,606.953 363.036,606.917 364.131,606.941C364.669,606.954 365.206,606.832 365.632,607.045C370.761,609.609 377.943,611.09 384.77,612.717C389.507,613.846 394.143,614.732 396.63,617.218C399.551,620.14 403.551,622.142 407.887,623.772C408.545,624.019 409.217,624.249 409.893,624.472C410.018,626.541 410.772,628.393 412.069,629.928C414.591,634.658 420.709,651.599 423.41,657.359C423.375,658.005 423.286,659.804 423.288,660.799C423.288,661.189 423.301,661.576 423.333,661.958C422.951,661.741 422.563,661.534 422.169,661.337C408.125,654.314 393.59,649.718 377.657,641.751C372.883,639.364 367.158,638.414 361.325,637.57C357.115,636.962 352.822,636.456 349.169,634.629C334.762,627.426 320.504,625.193 305.547,617.715C301.864,615.873 297.382,615.257 292.656,615.209C288.172,615.164 283.379,615.884 279.642,614.639C262.731,609.002 249.431,606.912 238.236,596.933L238.265,594.365C240.122,589.762 240.4,583.983 240.366,578.252C240.347,574.913 240.013,571.593 240.841,569.057Z" style="fill:white;"/>
                <path d="M389.45,664.809C381.317,664.809 375.103,662.156 369.239,658.815C363.087,655.31 357.565,650.565 348.498,650.565C344.375,650.565 341.026,647.217 341.026,643.093C341.026,638.969 344.375,635.621 348.498,635.621C358.936,635.621 366.184,639.601 373.203,643.804C378.042,646.702 382.678,649.865 389.45,649.865C393.574,649.865 396.922,653.213 396.922,657.337C396.922,661.461 393.574,664.809 389.45,664.809Z" style="fill:white;"/>
                <path d="M399.55,667.096C394.947,665.562 389.153,663.919 384.998,663.919C380.875,663.919 377.526,660.571 377.526,656.447C377.526,652.323 380.875,648.975 384.998,648.975C390.487,648.975 398.194,650.892 404.276,652.919C408.188,654.223 410.306,658.458 409.002,662.371C407.698,666.283 403.463,668.4 399.55,667.096Z" style="fill:white;"/>
                <path d="M367.582,606.5C373.222,607.772 378.77,609.32 383.97,611.249C384.552,611.266 388.794,611.398 390.863,611.685C393.946,612.114 396.334,613.346 397.779,614.79C398.489,615.5 399.188,616.405 399.848,617.478C401.618,617.507 403.157,617.905 404.383,618.518C405.982,619.318 408.427,619.588 410.127,620.436C412.406,621.572 414.097,623.209 415.132,625.278C415.996,627.008 416.382,628.861 416.42,630.797C416.442,631.915 416.283,634.031 416.236,634.602C416.977,636.635 418.433,639.295 419.773,640.759C420.8,641.42 427.03,645.51 429.119,648.694C431.456,652.257 432.062,656.216 429.945,660.449C429.234,661.872 427.581,663.912 424.381,664.8C422.472,665.329 418.988,665.534 416.696,665.367C414.681,665.221 413.176,664.692 412.514,664.361C410.975,663.591 409.31,662.25 407.748,660.474C405.908,658.38 404.125,655.375 402.595,653.845C401.965,653.215 401.318,652.578 400.649,651.946C400.111,652.149 399.535,652.294 398.918,652.377C397.764,652.532 396.181,652.469 394.431,651.71C393.192,651.171 391.371,649.83 390.173,648.776C389.144,648.475 383.89,646.915 382.317,646.129C379.972,644.956 377.472,644.83 374.9,644.557C372.251,644.276 369.535,643.971 366.753,643.276C362.818,642.292 359.043,640.298 355.197,639.245C347.04,637.012 341.313,632.179 333.888,628.466C330.344,626.695 325.786,626.035 322.332,624.883C320.932,624.417 319.233,624.859 317.575,624.948C315.051,625.084 312.57,625.029 310.348,624.474C299.404,621.738 287.182,622.101 276.162,619.346C262.684,615.976 249.444,611.313 238.169,605.676C236.715,604.949 234.866,603.392 233.332,600.921C231.436,597.865 229.643,592.937 229.091,589.108C228.399,584.308 229.964,580.6 231.669,578.896C232.154,578.411 232.882,577.848 233.844,577.401C233.6,576.666 233.468,575.88 233.468,575.063C233.468,570.939 236.817,567.591 240.94,567.591C246.451,567.591 263.454,569.135 267.642,571.229C269.402,572.108 271.217,573.417 273.04,574.81C274.418,575.863 275.722,577.145 277.192,577.568C282.435,579.077 287.724,580.577 293.132,582.122C300.521,584.233 308.549,584.121 316.152,584.706C321.335,585.104 326.21,586.952 331.319,587.59C335.996,588.175 345.585,589.561 349.498,592.307C354.338,595.703 361.312,601.883 367.582,606.5ZM272.329,591.697C272.572,591.782 272.816,591.859 273.06,591.93C277.327,593.157 281.624,594.38 285.991,595.626C281.427,594.511 276.95,593.244 272.931,591.904L272.329,591.697ZM255.713,583.631C256.292,583.707 256.856,583.788 257.398,583.873C258.959,584.116 260.286,584.258 260.959,584.595C262.714,585.473 264.465,587.119 266.32,588.445C268.114,589.727 269.971,590.812 271.843,591.522C266.71,589.646 260.871,586.418 255.713,583.631Z" style="fill:white;"/>
                <path d="M249.775,589.805C246.329,589.142 243.724,586.108 243.724,582.47C243.724,578.346 247.072,574.998 251.196,574.998C252.301,574.998 253.969,575.299 255.843,576.134C257.097,576.692 258.751,577.753 260.086,578.134C268.272,580.473 276.827,582.116 284.69,585.199C288.53,586.704 290.425,591.044 288.919,594.883C287.414,598.722 283.075,600.617 279.235,599.112C271.81,596.201 263.712,594.712 255.98,592.503C254.205,591.996 250.654,590.245 249.775,589.805Z" style="fill:white;"/>
                <path d="M317.372,610.706C328.28,614.342 339.889,621.718 351.473,621.718C355.597,621.718 358.945,625.066 358.945,629.19C358.945,633.314 355.597,636.662 351.473,636.662C338.357,636.662 324.997,629 312.646,624.883C308.733,623.579 306.616,619.344 307.92,615.432C309.224,611.519 313.459,609.402 317.372,610.706Z" style="fill:white;"/>
                <g transform="matrix(-0.982242,-0.18762,-0.18762,0.982242,1577.69,185.398)">
                    <path d="M1085.4,638.952C1086.24,637.855 1086.77,636.517 1086.89,635.051C1087.21,631.174 1084.5,627.702 1080.66,627.068C1080.66,627.068 1078.31,626.712 1076.31,626.968L1066.32,626.968C1063.2,626.968 1059.66,626.579 1056.4,626.919C1054.01,627.169 1051.75,627.757 1049.68,628.788C1048.76,628.509 1047.87,628.166 1047.05,627.757C1043.37,625.912 1038.87,627.41 1037.03,631.098C1035.35,634.459 1036.44,638.486 1039.44,640.57C1038.11,641.971 1036.59,643.794 1035.9,645.654C1034.92,648.274 1034.9,651.031 1036.3,653.826C1037.67,656.563 1040.08,658.913 1043.26,660.674C1047.94,663.272 1054.63,664.575 1058.5,665.436C1065.42,666.974 1072.78,667.702 1079.83,669.102C1085.71,670.27 1091.38,671.876 1096.11,675.423C1097.05,676.122 1097.26,676.983 1097.44,677.841C1097.28,677.886 1097.12,677.932 1096.98,677.98C1094.89,678.695 1093.59,679.868 1092.88,680.748C1090.84,683.275 1090.53,685.998 1091.88,688.889C1092.36,689.927 1093.65,692.265 1097.87,693.672C1105.86,696.335 1117.12,695.15 1125.76,695.15C1135.36,695.15 1145.38,695.02 1154.57,693.181C1156.33,692.83 1158.41,693.443 1160.42,693.624C1163.32,693.886 1166.13,693.765 1168.6,692.943C1174.99,690.813 1182.42,690.164 1189.21,688.806C1197.31,687.186 1205.58,685.679 1213.64,684.065C1216.57,683.479 1220.15,683.003 1222.85,681.752C1223.34,681.723 1227.31,681.477 1228.96,681.148C1234.22,680.095 1239.21,678.885 1244.08,677.263C1246.04,676.611 1248.76,676.641 1250.86,676.05C1252.68,675.536 1254.27,674.746 1255.56,673.718C1256.46,673.483 1258.65,672.882 1259.63,672.392C1261.64,671.393 1263.13,669.934 1264.08,668.047C1264.51,667.184 1264.89,666.023 1265.02,664.629C1265.18,663.09 1264.87,660.66 1264.87,659.6C1264.87,654.64 1264.96,648.821 1263.39,644.11C1262.57,641.658 1262.08,638.167 1261.22,635.181C1260.49,632.679 1259.49,630.447 1258.27,628.697C1258.14,627.578 1257.87,625.667 1257.55,624.644C1257.05,623.106 1256.29,621.787 1255.32,620.723C1255.01,620.19 1253.24,617.162 1252.1,616.029C1248.89,612.816 1245.6,609.838 1242.61,606.893C1242.12,605.786 1241.31,604.139 1240.43,603.267C1238.96,601.798 1236.74,600.658 1233.77,600.622C1230.46,600.582 1224.61,602.851 1223.31,603.285C1214.18,606.328 1204.78,611.039 1195.23,614.224C1178.31,619.863 1160.72,625.453 1143.16,630.137C1134.19,632.528 1125.32,636.723 1115.96,637.573C1105.88,638.49 1095.61,638.841 1085.4,638.952ZM1231.05,616.451L1228.03,617.462C1218.9,620.505 1209.51,625.216 1199.95,628.401C1182.75,634.135 1164.87,639.814 1147.01,644.577C1137.24,647.181 1127.51,651.529 1117.32,652.456C1105.01,653.575 1092.43,653.889 1080,653.935C1080.92,654.095 1081.84,654.264 1082.75,654.445C1090.86,656.056 1098.56,658.576 1105.08,663.468C1108.6,666.104 1110.17,668.973 1111.22,672.026C1111.74,673.515 1111.96,675.098 1112.75,676.679C1113.01,677.191 1113.7,678.875 1114.14,680.673C1118.15,680.57 1122.22,680.206 1125.76,680.206C1134.38,680.206 1143.38,680.179 1151.64,678.528C1153.94,678.068 1156.53,678.162 1159.16,678.455C1160.8,678.638 1162.48,679.229 1163.87,678.766C1170.82,676.448 1178.89,675.629 1186.28,674.152C1194.38,672.532 1202.65,671.025 1210.71,669.411C1212.54,669.046 1214.86,669.05 1216.49,668.232C1218.03,667.465 1219.96,666.988 1222.04,666.789C1223.4,666.657 1224.89,666.721 1226.03,666.494C1230.67,665.566 1235.06,664.515 1239.35,663.086C1240.69,662.638 1242.27,662.351 1243.89,662.13C1244.71,662.019 1246.08,661.784 1246.63,661.687C1247.51,660.969 1248.53,660.378 1249.67,659.927L1249.93,659.833L1249.92,659.6C1249.92,656.161 1250.3,652.102 1249.21,648.836C1248.45,646.564 1247.91,643.5 1247.2,640.618C1246.92,639.466 1246.2,637.603 1246.11,637.364C1245.33,636.539 1244.64,635.484 1244.17,634.17C1243.82,633.186 1243.47,630.61 1243.34,629.549C1242.46,628.296 1241.56,626.763 1241.35,626.414C1237.94,623.011 1234.44,619.871 1231.33,616.751C1231.23,616.658 1231.14,616.558 1231.05,616.451ZM1069.68,642.77C1065.17,644.199 1059.77,644.811 1054.48,644.521C1053.86,645.959 1053.14,647.401 1052.42,648.469C1052.65,648.556 1052.88,648.639 1053.12,648.719C1056.2,649.777 1059.55,650.361 1061.74,650.847C1065.08,651.589 1068.52,652.137 1071.98,652.664C1070,651.32 1068.69,649.048 1068.69,646.473C1068.69,645.125 1069.05,643.86 1069.68,642.77Z" style="fill:white;"/>
                </g>
                <g transform="matrix(-0.982242,-0.18762,-0.18762,0.982242,1577.69,185.398)">
                    <path d="M1131.76,623.244C1130.96,623.222 1127.57,623.12 1125.66,623.028C1120.79,622.793 1116.55,623.896 1114.05,626.106C1113.64,626.202 1111.75,626.628 1110.46,626.719C1105.45,627.071 1099.43,626.482 1095.6,626.482C1073.57,626.482 1054.28,623.144 1032.17,623.144C1028.05,623.144 1024.7,626.492 1024.7,630.616C1024.7,634.74 1028.05,638.088 1032.17,638.088C1054.28,638.088 1073.57,641.427 1095.6,641.427C1100.52,641.427 1108.72,642.187 1114.6,641.291C1118.13,640.753 1121.05,639.57 1123.12,637.995C1124.21,638.027 1127.22,638.12 1128.97,638.204C1132.67,638.382 1136.01,637.788 1138.49,636.52C1141.73,636.308 1157.72,635.219 1160.28,634.366C1170.64,630.913 1196.68,627.935 1204.66,623.946C1208.78,621.886 1216.49,617.538 1223.3,614.393C1226.65,612.846 1229.59,611.381 1231.36,611.381C1235.49,611.381 1238.83,608.033 1238.83,603.909C1238.83,599.785 1235.49,596.437 1231.36,596.437C1228.89,596.437 1225.02,597.419 1220.64,599.236C1212.96,602.426 1202.94,608.099 1197.98,610.579C1195.24,611.946 1189.99,613.024 1184.15,614.167C1173.82,616.189 1161.83,618.096 1155.55,620.189C1153.31,620.936 1142.07,621.034 1137.22,621.576C1134.76,621.851 1132.92,622.589 1131.76,623.244Z"/>
                </g>
                <g transform="matrix(-0.982242,-0.18762,-0.18762,0.982242,1577.69,185.398)">
                    <path d="M1179.39,675.5C1178.29,675.428 1175.38,675.221 1173.48,674.91C1169.62,674.278 1165.67,673.634 1162.67,673.749C1160.34,673.839 1158.36,674.344 1156.8,675.122C1153.91,676.565 1150.34,675.975 1146.73,675.613C1140.75,675.014 1134.65,674.356 1129.4,675.669C1108.56,680.88 1085.36,677.22 1064.86,682.346C1056.54,684.423 1036.44,691.261 1022.72,695.182C1017.8,696.586 1013.9,697.702 1012.14,697.702C1008.02,697.702 1004.67,701.05 1004.67,705.174C1004.67,709.298 1008.02,712.646 1012.14,712.646C1014.57,712.646 1020.04,711.489 1026.82,709.551C1040.39,705.675 1060.26,698.898 1068.48,696.844C1088.98,691.718 1112.18,695.378 1133.02,690.167C1137.7,688.998 1143.28,690.415 1148.53,690.765C1153.75,691.114 1158.73,690.713 1163.01,688.713C1163.5,688.727 1165.59,688.802 1166.96,688.999C1170.38,689.491 1174.13,690.242 1177.26,690.447C1182.27,690.776 1186.24,689.471 1188.57,687.297C1188.87,687.242 1190.24,686.999 1191.09,686.979C1192.94,686.934 1194.94,687.071 1196.91,687.145C1201.82,687.329 1206.59,686.966 1210.22,685.15C1215.15,682.684 1251.02,671.472 1258.07,671.472C1262.19,671.472 1265.54,668.124 1265.54,664C1265.54,659.876 1262.19,656.528 1258.07,656.528C1250.05,656.528 1209.15,668.977 1203.54,671.783C1202.5,672.304 1201.17,672.252 1199.8,672.259C1197.21,672.272 1194.48,672.036 1191.94,672.027C1186.94,672.01 1182.55,673.047 1179.39,675.5Z"/>
                </g>
            </g>
        </g>
        <g>
            <g transform="matrix(1.8501,0.300067,-0.300067,1.8501,193.958,-1098.85)">
                <path d="M294.067,882.698C295.233,882.317 295.321,881.824 294.067,881.197L294.067,882.698C284.28,885.9 207.215,874.802 201.539,874.802C197.175,874.802 113.105,854.79 105.403,847.088C101.075,842.76 107.438,813.948 104.338,810.848C99.598,806.108 77.88,796.422 74.492,806.584C73.032,810.966 81.367,819.962 77.69,823.638C72.245,829.084 50.753,810.652 45.713,825.77C36.51,853.379 57.264,842.651 63.833,849.22C65.304,850.69 53.467,851.739 52.109,852.418C46.901,855.022 44.77,856.558 41.45,859.879C32.489,868.84 59.693,874.802 63.833,874.802C64.484,874.802 67.682,874.386 68.097,874.802C71.172,877.877 62.434,885.927 60.636,886.526C48.535,890.56 50.925,898.134 57.438,904.647C62.062,909.271 79.588,901.854 83.02,900.383C89.84,897.46 104.095,895.296 108.601,890.79C110.26,889.131 122.708,890.79 124.59,890.79C130.46,890.79 144.144,888.309 149.105,890.79C154.024,893.249 289.225,917.681 294.067,920.102L294.067,882.698Z" style="fill:rgb(217,128,250);"/>
            </g>
            <g>
                <path d="M423.819,681.733L423.819,690.276C423.819,694.096 426.7,697.301 430.498,697.706C434.296,698.111 437.789,695.587 438.595,691.853C438.595,691.853 439.841,685.884 439.322,681.011C439.235,680.192 439.095,679.399 438.906,678.642C439.155,675.555 439.636,671.454 439.568,668.093C439.51,665.195 439.021,662.66 438.248,660.829C438.282,660.215 438.382,658.191 438.371,657.124C438.349,655.017 437.948,653.052 437.084,651.325C436.22,649.596 434.875,646.295 433.379,642.514C433.851,642.541 434.342,642.553 434.852,642.553C438.976,642.553 442.324,639.205 442.324,635.081C442.324,630.957 438.976,627.609 434.852,627.609C434.543,627.609 434.21,627.59 433.898,627.562C433.694,626.505 433.395,625.12 433.088,624.189C432.408,622.122 431.324,620.096 429.453,618.224L428.898,617.692C429.366,615.105 428.208,613.098 428.182,613.044C427.438,611.556 425.428,609.343 422.368,607.56C417.774,604.884 410.624,602.682 409.035,602.682C407.263,602.682 405.634,603.3 404.354,604.334C401.096,602.125 396.852,600.448 392.148,599.169C385.416,597.34 377.567,596.304 372.316,593.678C369.867,592.454 366.9,592.013 363.783,591.991C362.676,591.983 361.546,592.02 360.45,591.996C359.916,591.984 359.384,592.109 358.962,591.898C353.31,589.072 344.565,587.37 339.377,584.776C338.098,584.136 336.497,583.718 334.675,583.634C333.608,583.585 331.621,583.689 330.498,583.759C328.997,582.725 326.91,581.523 324.447,580.337C317.609,577.044 307.44,573.161 303.678,571.907C301.298,571.114 298.926,570.534 296.684,569.882C294.72,569.31 292.829,568.845 291.465,567.48C289.159,565.175 284.951,563.782 280.1,563.521C278.044,563.411 274.598,563.18 273.63,563.115C270.693,560.836 265.59,559.2 259.669,558.197C256.319,557.629 252.67,557.127 249.393,556.285C247.359,555.762 245.442,555.287 244.282,554.127C241.282,551.126 238.011,550.884 234.643,552.568C233.348,553.216 231.791,554.508 230.517,556.391C229.34,558.131 228.252,560.635 227.864,561.41C226.015,565.109 225.444,570 225.414,575.239C225.387,580.037 226.161,585.293 224.303,589.008C224.064,589.485 223.6,590.613 223.416,592.276C223.211,594.132 223.148,598.12 223.34,600.126C223.638,603.256 225.134,605.076 225.703,605.645C238.964,618.906 254.437,621.99 274.916,628.816C279.303,630.278 284.695,630.244 290.031,630.165C293.223,630.117 296.41,629.854 298.864,631.081C313.821,638.56 328.079,640.792 342.486,647.996C347.527,650.516 353.376,651.52 359.186,652.361C363.374,652.966 367.546,653.404 370.974,655.118C386.907,663.084 401.441,667.681 415.486,674.703C418.965,676.443 421.712,679.47 423.819,681.733ZM240.841,569.057C240.013,571.593 240.347,574.913 240.366,578.252C240.4,583.983 240.122,589.762 238.265,594.365L238.236,596.933C249.431,606.912 262.731,609.002 279.642,614.639C283.379,615.884 288.172,615.164 292.656,615.209C297.382,615.257 301.864,615.873 305.547,617.715C320.504,625.193 334.762,627.426 349.169,634.629C352.822,636.456 357.115,636.962 361.325,637.57C367.158,638.414 372.883,639.364 377.657,641.751C393.59,649.718 408.125,654.314 422.169,661.337C422.563,661.534 422.951,661.741 423.333,661.958C423.301,661.576 423.288,661.189 423.288,660.799C423.286,659.804 423.375,658.005 423.41,657.359C420.709,651.599 414.591,634.658 412.069,629.928C410.773,628.391 410.018,626.541 409.893,624.472C409.217,624.249 408.545,624.019 407.887,623.772C403.551,622.142 399.551,620.14 396.63,617.218C394.143,614.732 389.507,613.846 384.77,612.717C377.943,611.09 370.761,609.609 365.632,607.045C365.206,606.832 364.669,606.954 364.131,606.941C363.036,606.917 361.908,606.953 360.804,606.946C357.685,606.925 354.72,606.485 352.279,605.264C346.955,602.603 338.889,600.938 333.635,598.586C332.563,598.654 329.413,598.827 327.963,598.659C325.458,598.37 323.463,597.39 322.016,596.012C321.819,595.895 319.685,594.631 317.963,593.802C311.704,590.788 302.396,587.232 298.953,586.084C292.413,583.904 286.108,582.693 281.625,578.728C280.668,578.651 277.234,578.382 275.234,578.288C270.476,578.062 266.404,576.747 264.176,574.672C263.929,574.574 262.566,574.042 261.63,573.811C259.25,573.223 256.435,572.812 253.57,572.337C249.116,571.599 244.642,570.58 240.841,569.057Z" style="fill:white;"/>
                <path d="M389.45,649.865C382.678,649.865 378.042,646.702 373.203,643.804C366.184,639.601 358.936,635.621 348.498,635.621C344.375,635.621 341.026,638.969 341.026,643.093C341.026,647.217 344.375,650.565 348.498,650.565C357.565,650.565 363.087,655.31 369.239,658.815C375.103,662.156 381.317,664.809 389.45,664.809C393.574,664.809 396.922,661.461 396.922,657.337C396.922,653.213 393.574,649.865 389.45,649.865Z" style="fill:white;"/>
                <path d="M404.276,652.919C398.194,650.892 390.487,648.975 384.998,648.975C380.875,648.975 377.526,652.323 377.526,656.447C377.526,660.571 380.875,663.919 384.998,663.919C389.153,663.919 394.947,665.562 399.55,667.096C403.463,668.4 407.698,666.283 409.002,662.371C410.306,658.458 408.188,654.223 404.276,652.919Z" style="fill:white;"/>
                <path d="M233.844,577.401C232.882,577.848 232.154,578.411 231.669,578.896C229.964,580.6 228.399,584.308 229.091,589.108C229.643,592.937 231.436,597.865 233.332,600.921C234.866,603.392 236.715,604.949 238.169,605.676C249.444,611.313 262.684,615.976 276.162,619.346C287.182,622.101 299.404,621.738 310.348,624.474C312.57,625.029 315.051,625.084 317.575,624.948C319.233,624.859 320.932,624.417 322.332,624.883C325.786,626.035 330.344,626.695 333.888,628.466C341.313,632.179 347.04,637.012 355.197,639.245C359.043,640.298 362.818,642.292 366.753,643.276C369.535,643.971 372.251,644.276 374.9,644.557C377.472,644.83 379.972,644.956 382.317,646.129C383.89,646.915 389.144,648.475 390.173,648.776C391.371,649.83 393.192,651.171 394.431,651.71C396.181,652.469 397.764,652.532 398.918,652.377C399.535,652.294 400.111,652.149 400.649,651.946C401.318,652.578 401.965,653.215 402.595,653.845C404.125,655.375 405.908,658.38 407.748,660.474C409.31,662.25 410.975,663.591 412.514,664.361C413.176,664.692 414.681,665.221 416.696,665.367C418.988,665.534 422.472,665.329 424.381,664.8C427.581,663.912 429.234,661.872 429.945,660.449C432.062,656.216 431.456,652.257 429.119,648.694C427.03,645.51 420.8,641.42 419.773,640.759C418.434,639.296 416.977,636.635 416.236,634.602C416.283,634.031 416.442,631.915 416.42,630.797C416.382,628.861 415.996,627.008 415.132,625.278C414.097,623.209 412.406,621.572 410.127,620.436C408.427,619.588 405.982,619.318 404.383,618.518C403.157,617.905 401.618,617.507 399.848,617.478C399.188,616.405 398.489,615.5 397.779,614.79C396.334,613.346 393.946,612.114 390.863,611.685C388.794,611.398 384.552,611.266 383.97,611.249C378.771,609.319 373.222,607.771 367.582,606.5C361.312,601.883 354.338,595.703 349.498,592.307C345.585,589.561 335.996,588.175 331.319,587.59C326.21,586.952 321.335,585.104 316.152,584.706C308.549,584.121 300.521,584.233 293.132,582.122C287.724,580.577 282.435,579.077 277.192,577.568C275.722,577.145 274.418,575.863 273.04,574.81C271.217,573.417 269.402,572.108 267.642,571.229C263.454,569.135 246.451,567.591 240.94,567.591C236.817,567.591 233.468,570.939 233.468,575.063C233.468,575.88 233.6,576.666 233.844,577.401ZM272.329,591.697L272.931,591.904C276.95,593.244 281.427,594.511 285.991,595.626C281.624,594.38 277.327,593.157 273.06,591.93C272.816,591.859 272.572,591.782 272.329,591.697ZM255.713,583.631C260.871,586.419 266.71,589.646 271.843,591.522C269.971,590.812 268.114,589.727 266.32,588.445C264.465,587.119 262.714,585.473 260.959,584.595C260.286,584.258 258.959,584.116 257.398,583.873C256.856,583.788 256.292,583.707 255.713,583.631Z" style="fill:white;"/>
                <path d="M249.775,589.805C250.654,590.245 254.205,591.996 255.98,592.503C263.712,594.712 271.81,596.201 279.235,599.112C283.075,600.617 287.414,598.722 288.919,594.883C290.425,591.044 288.53,586.704 284.69,585.199C276.827,582.116 268.272,580.473 260.086,578.134C258.751,577.753 257.097,576.692 255.843,576.134C253.969,575.299 252.301,574.998 251.196,574.998C247.072,574.998 243.724,578.346 243.724,582.47C243.724,586.108 246.329,589.142 249.775,589.805Z" style="fill:white;"/>
                <path d="M312.646,624.883C324.997,629 338.357,636.662 351.473,636.662C355.597,636.662 358.945,633.314 358.945,629.19C358.945,625.066 355.597,621.718 351.473,621.718C339.889,621.718 328.28,614.342 317.372,610.706C313.459,609.402 309.224,611.519 307.92,615.432C306.616,619.344 308.733,623.579 312.646,624.883Z" style="fill:white;"/>
            </g>
            <path d="M305.084,575.115C299.783,569.912 287.7,563.376 274.896,558.328C262.082,553.276 248.608,549.699 240.967,549.699C236.843,549.699 233.495,553.047 233.495,557.171C233.495,561.295 236.843,564.643 240.967,564.643C247.393,564.643 258.639,567.982 269.414,572.23C280.081,576.436 290.35,581.511 294.662,585.823C296.931,588.092 301.549,590.202 307.487,591.567C316.728,593.691 330.112,594.518 335.552,597.238C350.72,604.822 409.3,622.509 429.031,622.509C433.155,622.509 436.503,619.161 436.503,615.037C436.503,610.913 433.155,607.565 429.031,607.565C410.698,607.565 356.328,590.918 342.235,583.872C336.888,581.198 324.941,579.687 314.949,577.842C312.201,577.335 309.634,576.79 307.519,576.119C306.592,575.825 305.281,575.209 305.084,575.115Z"/>
            <path d="M268.734,632.17C270.303,633.533 272.492,634.918 275.248,636.212C280.861,638.848 289.369,641.434 298.782,644.081C310.062,647.253 322.721,650.565 332.753,654.435C338.402,656.615 343.169,658.812 345.851,661.494C346.817,662.46 348.292,663.469 350.322,664.24C352.573,665.094 356.007,665.8 359.812,666.432C363.121,666.98 366.764,667.509 369.902,668.231C371.426,668.582 373.615,669.403 373.927,669.522C376.19,671.614 380.048,672.975 384.475,673.476C386.543,673.71 390.078,674.196 390.981,674.322C395.606,678.552 403.694,682.061 410.847,686.75C415.796,689.995 420.446,693.905 420.446,700.723C420.446,704.847 423.794,708.195 427.918,708.195C432.042,708.195 435.39,704.847 435.39,700.723C435.39,688.211 428.123,680.208 419.04,674.253C412.494,669.961 404.864,667.102 400.93,663.168C398.747,660.985 394.779,659.542 390.168,659.03C388.087,658.799 384.472,658.287 383.643,658.168C382.417,657.102 380.769,656.106 378.734,655.302C375.378,653.978 370.546,653.043 365.784,652.263C362.144,651.668 356.851,650.517 355.727,650.27C347.986,643.236 330.146,637.339 312.644,632.434C302.876,629.696 293.287,627.154 286.195,624.561C282.689,623.28 279.878,622.237 278.522,620.881C277.679,620.038 275.849,618.795 272.99,617.773C267.435,615.787 255.168,613.09 245.163,609.583C242.243,608.559 239.535,607.474 237.345,606.289C236.486,605.824 235.439,605.057 234.943,604.682C234.267,601.252 231.24,598.662 227.613,598.662C223.489,598.662 220.141,602.01 220.141,606.134C220.141,609.121 221.297,612.117 223.908,614.836C226.045,617.062 229.492,619.261 233.793,621.17C244.591,625.963 266.63,631.633 268.734,632.17Z"/>
        </g>
    </g>
    <g transform="matrix(1.06195,0,0,1.06195,-38.4204,-18.0684)">
        <g transform="matrix(0.351572,0,0,0.351572,426.626,-2.06408)">
            <path d="M575.585,855.898C572.287,850.95 596.909,838.712 607.502,837.66C608.769,837.534 615.985,834.736 617.924,835.706C630.782,842.134 634.65,853.083 643.328,861.76C649.483,867.916 660.716,869.832 664.172,876.742C666.069,880.537 670.349,882.583 671.988,885.861C674.943,891.77 673.502,899.08 675.245,906.053C676.066,909.339 676.82,917.506 674.593,919.732C662.957,931.368 650.445,943.229 640.722,952.952C638.582,955.093 626.281,957.622 621.833,962.071C620.267,963.636 613.738,963.187 612.062,964.025C605.779,967.166 581.838,967.021 576.888,962.071C574.366,959.549 561.67,950.288 560.604,947.09C558.702,941.383 556.613,936.503 554.09,931.457C550.255,923.786 550.833,911.738 550.833,902.797C550.833,900.244 550.094,894.417 551.485,893.026C556.07,888.441 559.872,879.508 562.558,874.136C564.516,870.22 570.208,855.898 575.585,855.898Z" style="fill:white;stroke:black;stroke-width:11.25px;"/>
        </g>
        <g transform="matrix(0.351572,0,0,0.351572,426.626,-2.06408)">
            <ellipse cx="613.932" cy="916.989" rx="16.284" ry="16.171" style="stroke:black;stroke-width:3.71px;"/>
        </g>
    </g>
    <g transform="matrix(1.06195,0,0,1.06195,-38.4204,-18.0684)">
        <g transform="matrix(0.351572,0,0,0.351572,426.626,-2.06408)">
            <path d="M981.744,924.345C983.102,922.826 984.149,921.056 984.825,919.135C986.22,915.029 988.311,909.144 989.856,906.053C991.58,902.605 991.42,887.554 993.113,885.861C994.703,884.27 992.509,877.997 994.416,876.09C997.473,873.032 998.254,866.389 1001.58,863.063C1004.94,859.708 1010.12,857.785 1013.31,854.595C1014.07,853.827 1019.95,854.595 1021.12,854.595C1025.06,854.595 1041.32,861.762 1042.62,864.366C1044.2,867.541 1052.36,868.871 1054.34,872.834C1056.82,877.793 1062.59,880.208 1065.41,885.861C1069.86,894.755 1071.08,903.043 1075.18,911.264C1077.11,915.121 1082.09,929.374 1079.09,935.365C1072.77,948.005 1069.35,958.14 1061.51,965.979C1058.45,969.039 1056.7,974.311 1052.39,975.75C1047.21,977.476 1040.03,985.202 1031.54,980.961C1028.03,979.203 1025.73,975.122 1021.77,973.144C1005.06,964.787 997.545,960.641 985.296,948.392C983.265,946.361 978.292,928.171 981.744,924.345Z" style="fill:white;stroke:black;stroke-width:11.25px;"/>
        </g>
        <g transform="matrix(0.351572,0,0,0.351572,426.626,-2.06408)">
            <ellipse cx="1036.27" cy="930.692" rx="16.284" ry="16.171" style="stroke:black;stroke-width:3.71px;"/>
        </g>
    </g>
    <g transform="matrix(0.373351,0,0,0.373351,414.634,-20.2604)">
        <path d="M856.977,937.97C854.661,942.602 852.301,946.671 850.463,950.346C849.277,952.718 850.463,959.441 850.463,962.071C850.463,968.261 851.411,991.794 849.812,996.594C847.392,1003.85 849.541,1017.82 853.72,1022C855.6,1023.88 852.483,1031.25 853.72,1033.72C858.437,1043.16 862.839,1059.89 862.839,1070.85C862.839,1074.02 863.989,1082.73 862.188,1084.53C860.935,1085.78 863.012,1090.7 862.188,1092.35C859.419,1097.88 856.395,1100.09 853.069,1103.42C845.911,1110.58 846.055,1114.49 831.573,1114.49C829.532,1114.49 818.187,1116.09 816.592,1114.49C813.708,1111.61 807.342,1110.45 804.216,1107.33C798.566,1101.68 797.302,1080.07 794.445,1071.5C792.852,1066.72 796.683,1059.04 794.445,1054.57C792.971,1051.62 790.049,1046.67 784.675,1049.36C778.029,1052.68 778.314,1060.28 772.95,1065.64C761.03,1077.56 744.917,1108.62 717.584,1099.51C713.164,1098.04 709.454,1099.2 706.511,1096.25C706.46,1096.2 707.848,1090.46 707.162,1089.09C702.278,1079.32 704.921,1062.59 708.465,1051.96C710.251,1046.6 710.711,1028.22 714.327,1024.6C720.635,1018.29 723.314,1010.4 729.308,1004.41C730.238,1003.48 730.574,999.888 731.914,998.548C735.887,994.575 741.412,991.655 745.593,987.474C752.847,980.22 756.065,970.488 763.18,963.374C768.436,958.118 771.647,936.828 771.647,927.549C771.647,925.703 772.186,914.521 770.996,914.521" style="fill:none;stroke:black;stroke-width:11.25px;"/>
    </g>
    <g transform="matrix(0.373351,0,0,0.373351,414.634,-20.2604)">
        <path d="M672.639,1361.36C677.38,1366.1 681.077,1382.17 683.713,1384.81C687.408,1388.5 689.962,1397.57 691.529,1399.14C695.983,1403.59 699.627,1409.19 704.556,1414.12C711.255,1420.82 721.568,1419.37 728.006,1422.59C731.672,1424.42 757.143,1428.62 760.574,1425.19C764.631,1421.14 770.512,1413.41 776.207,1411.52C784.156,1408.87 788.707,1397.71 793.143,1393.28C795.735,1390.68 795.548,1384.36 798.354,1381.55C801.582,1378.32 802.618,1373.67 804.867,1369.18C809.572,1359.77 815.323,1352.17 819.849,1343.12C820.978,1340.86 823.954,1339.74 825.06,1337.91C827.503,1333.87 830.086,1327.02 833.527,1323.58C835.704,1321.4 836.754,1317.1 838.738,1315.11C844.731,1309.12 851.573,1302.93 858.279,1296.22C860.071,1294.43 866.683,1285.8 868.701,1285.8" style="fill:none;stroke:black;stroke-width:11.25px;"/>
    </g>
    <g>
        <g transform="matrix(1.88165,0.276075,-0.228283,1.55592,301.544,-218.566)">
            <path d="M195.835,160.161C195.835,156.791 196.686,144.425 198.832,142.278C199.845,141.266 201.096,132.045 202.628,130.513C209.531,123.611 215.387,117.582 224.849,112.851C228.064,111.243 234.665,112.151 236.814,110.002C237.608,109.208 240.911,110.517 241.942,110.002C251.384,105.281 267.609,107.737 275.557,111.711C277.635,112.75 282.653,112.539 284.104,113.99C289.802,119.688 292.857,121.241 296.638,128.804C298.883,133.293 299.496,139.639 302.905,143.048C303.38,143.523 302.431,145.422 302.905,145.897C305.53,148.521 304.94,154.979 304.94,159.816" style="fill:rgb(26,26,26);"/>
            <path d="M302.513,143.479C302.513,143.532 302.512,143.628 302.504,143.695C302.469,144.002 302.383,144.358 302.323,144.69C302.259,145.049 302.225,145.387 302.254,145.653C302.288,145.967 302.397,146.213 302.57,146.387C303.53,147.346 303.995,148.88 304.237,150.641C304.629,153.5 304.414,156.947 304.414,159.816C304.414,160.167 304.65,160.452 304.94,160.452C305.23,160.452 305.466,160.167 305.466,159.816C305.466,156.881 305.675,153.357 305.274,150.433C304.992,148.375 304.401,146.608 303.298,145.465C303.298,145.413 303.299,145.316 303.307,145.249C303.342,144.942 303.428,144.586 303.488,144.254C303.552,143.896 303.586,143.557 303.557,143.292C303.523,142.978 303.414,142.732 303.241,142.558C301.602,140.92 300.649,138.566 299.823,136.093C298.952,133.487 298.224,130.747 297.088,128.475C293.269,120.836 290.194,119.255 284.439,113.5C283.807,112.869 282.565,112.487 281.144,112.231C279.231,111.887 276.976,111.733 275.758,111.124C267.715,107.102 251.296,104.637 241.741,109.414C241.547,109.511 241.251,109.502 240.904,109.477C240.247,109.429 239.445,109.268 238.72,109.175C238.186,109.107 237.69,109.077 237.303,109.135C236.949,109.188 236.669,109.321 236.479,109.512C235.678,110.313 234.203,110.616 232.542,110.838C229.818,111.202 226.613,111.28 224.648,112.263C215.13,117.022 209.236,123.08 202.293,130.023C201.942,130.374 201.586,131.065 201.26,131.975C200.826,133.187 200.416,134.812 200.031,136.413C199.656,137.971 199.305,139.507 198.975,140.594C198.797,141.181 198.66,141.626 198.497,141.788C197.799,142.487 197.188,144.16 196.729,146.29C195.731,150.928 195.309,157.774 195.309,160.161C195.309,160.512 195.544,160.797 195.835,160.797C196.125,160.797 196.36,160.512 196.36,160.161C196.36,157.829 196.772,151.141 197.747,146.611C198.134,144.812 198.578,143.358 199.167,142.769C199.33,142.606 199.512,142.299 199.683,141.857C199.991,141.065 200.322,139.767 200.67,138.318C201.101,136.524 201.564,134.492 202.063,132.958C202.357,132.052 202.641,131.325 202.963,131.003C209.825,124.141 215.643,118.142 225.05,113.438C226.943,112.492 230.034,112.452 232.658,112.102C234.562,111.848 236.231,111.41 237.149,110.492C237.24,110.4 237.397,110.394 237.583,110.381C237.88,110.361 238.234,110.392 238.61,110.44C239.351,110.534 240.17,110.698 240.841,110.747C241.381,110.786 241.841,110.74 242.142,110.59C251.472,105.925 267.503,108.372 275.356,112.299C276.631,112.936 278.987,113.129 280.989,113.489C282.18,113.704 283.239,113.951 283.768,114.48C289.41,120.121 292.444,121.645 296.188,129.133C297.297,131.35 297.998,134.027 298.848,136.569C299.732,139.214 300.776,141.712 302.513,143.479Z"/>
        </g>
        <g transform="matrix(1,2.77556e-17,8.32667e-17,1,-0.000265565,10.0152)">
            <path d="M751.41,6.983C751.41,21.87 746.069,36.874 746.069,53.276" style="fill:none;stroke:white;stroke-width:1px;"/>
        </g>
        <g transform="matrix(1,0,0,1,-0.000265565,10.0152)">
            <path d="M804.318,25.648C803.098,23.686 806.275,28.334 806.506,28.565C807.676,29.735 809.423,33.723 809.423,35.858C809.423,44.573 815.258,50.55 815.258,59.196C815.258,61.861 815.399,66.712 813.799,68.312C812.997,69.113 813.07,73.799 813.07,74.875C813.07,75.482 813.353,77.063 812.705,77.063" style="fill:none;stroke:white;stroke-width:1px;"/>
        </g>
        <g transform="matrix(1,0,0,1,-0.000265565,10.0152)">
            <path d="M670.13,20.543C670.13,22.16 668.523,22.126 667.577,22.731C665.012,24.373 661.219,28.153 660.284,30.024C659.466,31.661 659.073,35.246 657.732,36.588C656.954,37.365 657.741,40.589 657.002,41.328C656.024,42.306 656.158,45.454 655.179,46.433C654.471,47.141 654.67,48.766 654.085,49.35C653.024,50.412 653.763,52.183 652.991,53.726C651.651,56.407 651.533,61.117 651.533,64.301" style="fill:none;stroke:white;stroke-width:1px;"/>
        </g>
        <g transform="matrix(1.88165,0.276075,-0.228283,1.55592,198.87,-508.02)">
            <path d="M307.107,315.417C308.085,315.504 309.03,315.559 309.475,315.114C314.535,310.055 327.193,309.417 336.254,309.417C338.74,309.417 344.334,308.329 346.51,309.417C361.942,317.133 375.72,323.813 388.672,336.765C390.719,338.813 392.762,341.995 394.939,344.172C395.2,344.432 395.2,350.178 394.939,350.439C394.536,350.842 391.583,350.439 390.951,350.439L386.478,350.439L383.637,350.943C384.079,351.398 383.238,350.467 383.637,350.943C352.665,323.048 274.453,345.428 274.487,347.356C273.02,350.003 267.122,351.843 266.744,348.73C266.387,345.792 257.058,346.212 257.058,344.741L258.236,344.824C258.662,342.011 262.571,338.217 265.604,336.195C270.197,333.133 272.333,329.412 276.999,327.079C279.002,326.078 282.041,325.456 283.836,323.66C288.054,319.442 300.94,319.091 304.348,315.684C304.793,315.239 305.738,315.294 306.716,315.381L307.107,315.417Z"/>
            <path d="M274.925,347.707L274.924,347.71C273.973,349.427 271.312,350.868 269.235,350.989C267.637,351.082 266.412,350.376 266.224,348.822C266.193,348.571 266.032,348.381 265.817,348.202C265.503,347.939 265.075,347.728 264.581,347.544C262.943,346.935 260.634,346.659 258.995,346.323C258.074,346.135 257.347,345.907 256.99,345.634C256.66,345.381 256.532,345.058 256.532,344.741C256.532,344.566 256.592,344.399 256.697,344.279C256.802,344.159 256.944,344.096 257.088,344.107C257.088,344.107 257.837,344.159 257.837,344.159C258.136,343.076 258.831,341.88 259.762,340.713C261.305,338.775 263.489,336.879 265.35,335.638C269.962,332.563 272.112,328.834 276.798,326.491C278.759,325.511 281.743,324.928 283.501,323.17C285.658,321.014 290.021,319.81 294.29,318.745C296.776,318.126 299.226,317.543 301.153,316.81C302.37,316.348 303.372,315.834 304.013,315.194C304.256,314.95 304.603,314.795 305.025,314.729C305.517,314.653 306.13,314.692 306.754,314.747L307.146,314.782C307.61,314.824 308.066,314.859 308.459,314.83C308.742,314.809 308.988,314.776 309.14,314.624C311.219,312.545 314.54,311.172 318.38,310.298C324.019,309.014 330.788,308.781 336.254,308.781C337.742,308.781 340.347,308.389 342.661,308.311C344.295,308.256 345.791,308.369 346.711,308.829C362.194,316.57 376.012,323.28 389.007,336.275C391.054,338.322 393.097,341.505 395.274,343.682C395.345,343.752 395.468,343.94 395.525,344.277C395.612,344.798 395.66,346.052 395.66,347.305C395.66,348.559 395.612,349.812 395.525,350.333C395.468,350.671 395.345,350.858 395.274,350.929C395.194,351.01 395.073,351.09 394.908,351.143C394.706,351.209 394.395,351.246 394.028,351.252C392.979,351.272 391.395,351.075 390.951,351.075C390.951,351.075 386.517,351.075 386.517,351.075L384.183,351.489C384.115,351.588 384.017,351.655 383.889,351.691C383.834,351.707 383.699,351.749 383.518,351.631C383.504,351.622 383.44,351.574 383.312,351.443C373.473,342.589 358.832,338.866 343.477,337.926C320.321,336.507 295.537,341.444 282.97,344.93C279.689,345.84 277.244,346.65 275.887,347.221C275.456,347.402 275.045,347.637 274.925,347.707ZM394.488,344.544C394.513,344.876 394.609,346.214 394.609,347.305C394.609,348.284 394.532,349.462 394.497,349.933C394.366,349.953 394.175,349.978 394.011,349.981C392.968,350 391.392,349.803 390.951,349.803L386.478,349.803C386.453,349.803 386.427,349.805 386.402,349.81L383.813,350.269C383.767,350.233 383.723,350.208 383.68,350.191C372.447,340.265 355.201,336.738 337.683,336.427C311.303,335.96 284.32,342.751 276.545,345.626C275.307,346.084 274.528,346.47 274.266,346.704C274.133,346.823 274.056,346.95 274.012,347.069C273.461,348.004 272.292,348.798 271.075,349.275C270.133,349.644 269.155,349.82 268.385,349.678C267.803,349.571 267.343,349.286 267.264,348.637C267.179,347.933 266.747,347.331 266.03,346.876C264.733,346.053 262.406,345.651 260.44,345.305C259.82,345.196 259.238,345.093 258.746,344.978C258.749,344.965 258.751,344.952 258.753,344.938C258.909,343.908 259.598,342.751 260.519,341.595C261.993,339.744 264.08,337.937 265.858,336.752C270.431,333.703 272.554,329.99 277.2,327.667C279.245,326.644 282.338,325.984 284.172,324.15C286.233,322.089 290.422,321.008 294.502,319.991C297.026,319.362 299.512,318.768 301.469,318.024C302.841,317.502 303.96,316.896 304.683,316.174C304.835,316.022 305.081,315.989 305.365,315.968C305.757,315.938 306.214,315.974 306.677,316.015L307.069,316.051C307.693,316.106 308.306,316.145 308.798,316.069C309.22,316.003 309.567,315.848 309.811,315.604C311.779,313.635 314.938,312.376 318.575,311.548C324.153,310.278 330.847,310.052 336.254,310.052C337.749,310.052 340.366,309.661 342.691,309.582C344.149,309.533 345.488,309.594 346.309,310.004C361.691,317.695 375.427,324.345 388.337,337.255C390.348,339.266 392.354,342.372 394.488,344.544ZM275.011,347.398L275.01,347.419L275.011,347.405L275.011,347.398ZM275.012,347.384C275.013,347.37 275.013,347.356 275.013,347.342L275.012,347.384Z"/>
        </g>
        <g transform="matrix(1,0,0,1,1.13687e-13,6.40975)">
            <rect x="430.62" y="629.719" width="607.701" height="67.699" style="fill:white;stroke:white;stroke-width:5px;"/>
        </g>
        <path d="M431.332,615.094C439.951,615.673 455.471,626.268 464.805,628.601C470.148,629.937 476.454,627.694 481.898,628.601C499.809,631.587 519.991,629.314 538.161,629.314C583.612,629.314 628.96,630.926 674.19,633.587C717.864,636.156 762.242,633.378 805.234,628.601C815.801,627.427 826.848,627.84 837.283,625.753C842.977,624.614 849.317,626.474 855.088,625.753C874.96,623.269 898.136,623.906 917.761,627.177C934.621,629.987 954.766,627.177 971.888,627.177C988.276,627.177 1005.74,626.465 1021.03,626.465C1022.7,626.465 1037.93,626.278 1038.12,626.465C1038.93,627.269 1037.05,633.231 1036.7,633.587C1030.04,640.246 1013.62,638.572 1001.09,638.572C974.474,638.572 948.537,640.709 921.322,640.709L805.946,640.709C792.424,640.709 765.365,637.857 753.956,640.709C747.987,642.201 741.548,640.403 735.439,641.421C717.96,644.334 700.014,643.558 682.024,643.558C649.657,643.558 615.62,646.118 583.741,642.133C573.503,640.853 562.74,640.709 552.405,640.709C543.767,640.709 534.763,637.86 526.054,637.86C513.299,637.86 495.432,639.76 483.322,635.723C474.467,632.772 463.678,636.535 454.834,633.587C449.437,631.788 438.726,633.859 434.893,630.026C431.345,626.478 431.332,620.661 431.332,615.094C431.089,615.078 430.851,615.07 430.62,615.07L431.332,615.07L431.332,615.094Z"/>
        <path d="M430.62,615.358L430.332,615.071L430.62,615.365L430.62,615.402L430.332,615.094C430.332,617.935 430.34,620.839 430.796,623.487C431.279,626.292 432.267,628.814 434.186,630.733C435.857,632.404 438.703,633.119 441.923,633.413C446.275,633.81 451.337,633.475 454.518,634.535C459.051,636.047 464.082,635.861 469.115,635.653C473.901,635.455 478.69,635.233 483.006,636.672C495.206,640.739 513.204,638.86 526.054,638.86C534.763,638.86 543.767,641.709 552.405,641.709C562.699,641.709 573.42,641.851 583.617,643.125C615.536,647.115 649.616,644.558 682.024,644.558C700.069,644.558 718.07,645.329 735.603,642.407C738.59,641.91 741.657,642.109 744.707,642.242C747.923,642.382 751.121,642.448 754.199,641.679C765.554,638.84 792.487,641.709 805.946,641.709L921.322,641.709C948.537,641.709 974.474,639.572 1001.09,639.572C1008.65,639.572 1017.61,640.172 1025.02,639.21C1030.19,638.54 1034.61,637.093 1037.4,634.294C1037.49,634.205 1037.68,633.942 1037.85,633.514C1038.26,632.508 1038.98,630.154 1039.22,628.434C1039.34,627.672 1039.35,627.015 1039.25,626.588C1039.17,626.213 1039.01,625.941 1038.83,625.758C1038.76,625.686 1038.64,625.59 1038.46,625.521C1038.39,625.495 1038.12,625.438 1037.68,625.42C1035.06,625.314 1022.54,625.465 1021.03,625.465C1005.74,625.465 988.276,626.177 971.888,626.177C954.818,626.177 934.734,628.992 917.925,626.191C898.211,622.905 874.927,622.265 854.964,624.76C852.143,625.113 849.183,624.826 846.233,624.599C843.122,624.359 840.021,624.185 837.087,624.772C826.68,626.853 815.662,626.437 805.124,627.608C762.187,632.378 717.867,635.154 674.249,632.589C628.999,629.927 583.632,628.314 538.161,628.314C520.044,628.314 499.921,630.591 482.062,627.615C479.258,627.148 476.232,627.478 473.218,627.767C470.41,628.036 467.613,628.273 465.048,627.631C459.495,626.243 451.741,621.893 444.576,618.522C439.732,616.243 435.142,614.415 431.628,614.114C431.535,614.085 431.435,614.07 431.332,614.07L430.62,614.07L430.62,615.358ZM432.333,616.211C435.531,616.694 439.52,618.354 443.724,620.332C451.014,623.761 458.914,628.16 464.562,629.572C467.34,630.266 470.368,630.049 473.409,629.758C476.246,629.486 479.094,629.148 481.733,629.588C499.696,632.582 519.937,630.314 538.161,630.314C583.593,630.314 628.921,631.926 674.131,634.585C717.862,637.157 762.297,634.378 805.344,629.595C815.94,628.418 827.016,628.826 837.479,626.733C840.238,626.181 843.154,626.368 846.08,626.593C849.166,626.831 852.261,627.114 855.212,626.745C874.992,624.272 898.062,624.908 917.596,628.163C934.508,630.982 954.714,628.177 971.888,628.177C988.276,628.177 1005.74,627.465 1021.03,627.465C1022.48,627.465 1034.14,627.324 1037.3,627.409C1037.29,627.63 1037.28,627.907 1037.25,628.147C1037.01,629.795 1036.01,632.676 1035.91,632.961C1033.37,635.435 1029.38,636.628 1024.77,637.227C1017.44,638.178 1008.57,637.572 1001.09,637.572C974.474,637.572 948.537,639.709 921.322,639.709L805.946,639.709C792.361,639.709 765.175,636.873 753.713,639.739C750.822,640.461 747.816,640.375 744.793,640.244C741.604,640.105 738.397,639.914 735.275,640.435C717.849,643.339 699.958,642.558 682.024,642.558C649.698,642.558 615.704,645.121 583.866,641.141C573.587,639.856 562.781,639.709 552.405,639.709C543.767,639.709 534.763,636.86 526.054,636.86C513.394,636.86 495.658,638.781 483.638,634.775C479.099,633.262 474.066,633.446 469.032,633.654C464.247,633.853 459.461,634.075 455.15,632.638C451.855,631.539 446.614,631.832 442.104,631.421C439.416,631.176 436.995,630.714 435.6,629.319C433.971,627.69 433.177,625.529 432.767,623.147C432.389,620.953 432.339,618.575 432.333,616.211ZM432.332,615.076L432.332,615.086L432.332,615.076Z"/>
        <rect x="679.509" y="636.128" width="69.083" height="67.699" style="fill:white;stroke:white;stroke-width:5px;"/>
        <g transform="matrix(1,0,0,1,63.3853,0)">
            <path d="M537.783,644.367C533.91,665.096 533.346,684.997 537.07,703.827" style="fill:none;stroke:black;stroke-width:20px;"/>
        </g>
        <g transform="matrix(1,0,0,1,-10.6829,0)">
            <path d="M537.783,644.367C533.918,666.907 533.338,686.985 537.07,703.827" style="fill:none;stroke:black;stroke-width:20px;"/>
        </g>
        <g transform="matrix(1,0,0,1,128.907,0)">
            <path d="M537.783,644.367L537.07,703.827" style="fill:none;stroke:black;stroke-width:20px;"/>
        </g>
        <g transform="matrix(1,0,0,1,223.629,0)">
            <path d="M537.783,644.367C537.545,664.187 537.308,684.007 537.07,703.827" style="fill:none;stroke:black;stroke-width:20px;"/>
        </g>
        <g transform="matrix(1,0,0,1,315.36,-4.11952)">
            <path d="M537.783,644.367C542.275,668.917 542.074,688.774 537.07,703.827" style="fill:none;stroke:black;stroke-width:20px;"/>
        </g>
        <g transform="matrix(1,0,0,1,388.858,-4.11952)">
            <path d="M537.783,644.367C542.048,669.59 543.014,694.119 537.783,707.946" style="fill:none;stroke:black;stroke-width:20px;"/>
        </g>
        <g transform="matrix(1,0,0,1,463.639,-4.11952)">
            <path d="M537.783,644.367C540.416,668.972 540.134,688.718 537.07,703.827" style="fill:none;stroke:black;stroke-width:20px;"/>
        </g>
        <g transform="matrix(1,0,0,1,-81.9024,-4.11952)">
            <path d="M537.783,644.367C531.713,665.159 531.745,684.934 537.07,703.827" style="fill:none;stroke:black;stroke-width:20px;"/>
        </g>
    </g>
    <defs>
        <linearGradient id="_Linear1" x1="0" y1="0" x2="1" y2="0" gradientUnits="userSpaceOnUse" gradientTransform="matrix(2e-06,0,0,2e-06,-595.053,854.254)"><stop offset="0" style="stop-color:rgb(217,128,250);stop-opacity:1"/><stop offset="1" style="stop-color:rgb(217,128,250);stop-opacity:1"/></linearGradient>
    </defs>
</svg>
