<?xml version="1.0" encoding="UTF-8" standalone="no"?>
<!DOCTYPE svg PUBLIC "-//W3C//DTD SVG 1.1//EN" "http://www.w3.org/Graphics/SVG/1.1/DTD/svg11.dtd">
<svg width="100%" height="100%" viewBox="0 0 378 301" version="1.1" xmlns="http://www.w3.org/2000/svg" xmlns:xlink="http://www.w3.org/1999/xlink" xml:space="preserve" xmlns:serif="http://www.serif.com/" style="fill-rule:evenodd;clip-rule:evenodd;stroke-linejoin:round;stroke-miterlimit:2;">
    <g transform="matrix(1,0,0,1,-212.076,-85.0114)">
        <path d="M541.144,333.143C545.601,337.597 550.241,342.133 555.762,344.894C557.256,345.641 559.085,347.477 561.111,349.461C565.417,353.678 570.052,358.732 573.321,361.357C576.557,363.956 579.598,364.798 581.449,364.798C585.864,364.798 589.449,361.213 589.449,356.798C589.449,353.175 587.035,350.111 583.728,349.13C582.712,348.197 578.605,344.406 575.794,341.535C571.186,336.829 566.282,332.265 562.917,330.583C558.727,328.488 555.41,324.782 552.036,321.408C550.975,320.348 549.265,319.208 547.127,318.269C545.058,317.361 542.194,316.67 540.823,315.78C534.56,311.714 527.34,306.114 520.958,302.029C510.552,295.369 500.454,285.583 490.448,277.412C457.594,250.583 413.928,239.078 377.202,218.674C352.497,204.949 322.769,186.918 301.426,169.195C293.012,162.208 280.923,159.096 271.941,152.791C265.373,148.182 248.562,136.754 236.156,129.746C229.934,126.231 224.574,123.851 221.593,123.276C217.257,122.439 213.058,125.279 212.221,129.614C211.384,133.95 214.225,138.149 218.56,138.986C220.58,139.376 224.07,141.295 228.287,143.677C240.237,150.427 256.422,161.447 262.748,165.887C271.389,171.953 283.11,174.783 291.204,181.504C313.247,199.809 343.916,218.485 369.431,232.66C405.346,252.613 448.2,263.569 480.327,289.805C490.804,298.361 501.437,308.532 512.333,315.506C518.688,319.573 525.875,325.152 532.112,329.201C533.326,329.989 535.165,330.81 537.181,331.567C538.451,332.044 540.573,332.909 541.144,333.143Z" style="fill:rgb(253,208,27);"/>
    </g>
    <g transform="matrix(1,0,0,1,-212.076,-85.0114)">
        <path d="M238.1,380.54C238.901,379.846 241.167,377.908 243.036,376.557C247.809,373.108 253.517,369.532 255.772,368.029C259.608,365.471 264.85,363.871 269.489,361.837C273.848,359.926 277.778,357.678 280.625,354.831C291.877,343.579 299.27,332.42 312.094,321.788C331.221,305.931 348.445,287.907 370.248,276.167C377.289,272.376 382.045,265.653 388.913,261.471C403.232,252.751 419.35,242.819 432.565,231.815C454.126,213.862 471.778,191.266 489.306,169.725C499.028,157.776 517.255,146.864 528.888,136.288C537.289,128.651 547.472,120.644 554.303,111.534C557.367,107.45 560.484,102.432 564.425,99.187C567.833,96.38 568.322,91.334 565.515,87.926C562.708,84.517 557.662,84.029 554.254,86.836C549.376,90.853 545.295,96.879 541.503,101.935C535.253,110.268 525.811,117.462 518.126,124.449C505.957,135.511 487.065,147.129 476.895,159.627C460.011,180.377 443.097,202.225 422.327,219.519C409.701,230.032 394.271,239.475 380.591,247.805C376.763,250.136 373.498,253.144 370.245,256.142C367.872,258.33 365.526,260.537 362.662,262.079C339.928,274.321 321.826,292.936 301.883,309.47C288.64,320.449 280.93,331.898 269.311,343.517C267.222,345.607 263.964,346.845 260.673,348.192C255.82,350.177 250.797,352.116 246.897,354.716C243.268,357.135 231.467,364.584 226.869,369.11C223.653,372.276 222.75,375.552 222.75,377.382C222.75,381.798 226.334,385.382 230.75,385.382C234.044,385.382 236.875,383.388 238.1,380.54Z" style="fill:rgb(253,208,27);"/>
    </g>
</svg>
